<svg width="260" height="253" viewBox="0 0 260 253" fill="none" xmlns="http://www.w3.org/2000/svg">
<g clip-path="url(#clip0_54720_211)">
<path d="M297 148.5C297.052 183.554 284.652 217.487 262.013 244.249C261.19 245.225 260.353 246.186 259.5 247.142C249.462 258.431 237.769 268.131 224.821 275.912C221.851 277.695 218.816 279.375 215.715 280.953C215.402 281.112 215.083 281.271 214.77 281.426C214.395 281.616 214.015 281.801 213.634 281.986C205.789 285.825 197.618 288.958 189.217 291.348C188.343 291.594 187.468 291.834 186.591 292.067C175.54 294.991 164.187 296.628 152.76 296.944C152.164 296.959 151.578 296.969 151.013 296.979C150.812 296.985 150.617 296.99 150.422 296.99C149.779 296.995 149.142 297 148.5 297C136.458 297.009 124.459 295.554 112.767 292.668C111.596 292.381 110.429 292.077 109.268 291.759C103.151 290.089 97.149 288.024 91.2992 285.577C88.2161 284.293 85.1879 282.907 82.2145 281.42C81.5414 281.081 80.8682 280.742 80.2054 280.393C79.9228 280.254 79.6453 280.105 79.3678 279.961C63.5201 271.597 49.3083 260.446 37.4127 247.044C36.5906 246.125 35.7838 245.189 34.9874 244.249C21.8807 228.709 12.104 210.644 6.2627 191.172C0.421436 171.7 -1.35997 151.236 1.02881 131.048C3.41759 110.86 9.9257 91.3768 20.15 73.8059C30.3744 56.235 44.0973 40.9503 60.4687 28.8984C61.3114 28.2767 62.1593 27.6601 63.0174 27.0589C63.187 26.9407 63.3565 26.8225 63.5261 26.7043C78.6039 16.1428 95.5272 8.5003 113.42 4.17239C114.437 3.92061 115.455 3.68425 116.483 3.4633C135.863 -0.776045 155.892 -1.1271 175.41 2.43047C176.432 2.6206 177.455 2.81586 178.472 3.02653C196.205 6.66376 213.118 13.5316 228.366 23.2873C228.705 23.5031 229.044 23.7189 229.384 23.945C230.067 24.3869 230.75 24.8391 231.424 25.2964C251.623 38.8763 268.171 57.2181 279.607 78.7041C291.043 100.19 297.016 124.16 297 148.5Z" fill="#F2F2F2"/>
<path d="M110.99 225.324L63.5262 229.538L63.0175 229.584V27.0589C63.187 26.9407 63.3566 26.8225 63.5262 26.7043C73.418 19.7853 84.1184 14.1012 95.3894 9.7784L97.8147 43.2294L98.0357 46.2919L100.435 79.4655L101.175 89.6704L110.902 224.143L110.99 225.324Z" fill="#CCCCCC"/>
<path d="M228.366 23.2873C228.705 23.5031 229.045 23.7189 229.384 23.945V229.584L228.366 229.492L181.417 225.324L181.504 224.143L191.231 89.6704L191.971 79.4655L194.371 46.2919L194.592 43.2294L197.135 8.14952C208.104 11.9516 218.586 17.0325 228.366 23.2873Z" fill="#CCCCCC"/>
<path d="M228.366 23.2873V232.39C228.366 236.403 225.602 239.666 222.2 239.666H69.6922C66.8764 239.666 64.487 237.425 63.7625 234.368C63.6043 233.72 63.525 233.056 63.5261 232.39V26.7043C63.3566 26.8225 63.187 26.9407 63.0174 27.0589C62.1593 27.66 61.3115 28.2767 60.4688 28.8984V232.39C60.4233 235.438 61.5616 238.385 63.6443 240.611C64.7364 241.755 66.1178 242.583 67.642 243.006C68.3102 243.187 68.9997 243.279 69.6922 243.278H222.2C222.894 243.279 223.586 243.187 224.256 243.006C228.356 241.901 231.424 237.564 231.424 232.39V25.2964C230.75 24.8391 230.067 24.3869 229.384 23.945C229.045 23.7189 228.705 23.5031 228.366 23.2873Z" fill="#CCCCCC"/>
<path d="M229.896 43.2315H61.9976V46.2935H229.896V43.2315Z" fill="#CCCCCC"/>
<path d="M113.42 4.17238C114.437 3.9206 115.455 3.68424 116.483 3.46329V86.6079H113.42V4.17238Z" fill="#CCCCCC"/>
<path d="M175.41 2.43047C176.432 2.62059 177.455 2.81585 178.472 3.02652V86.6079H175.41V2.43047Z" fill="#CCCCCC"/>
<path d="M249.033 224.143H47.9619C44.3069 224.143 40.8016 225.594 38.2171 228.179C35.6326 230.763 34.1807 234.269 34.1807 237.924C34.1807 241.579 35.6326 245.084 38.2171 247.669C40.8016 250.253 44.3069 251.705 47.9619 251.705H249.033C250.99 251.705 252.925 251.288 254.708 250.481C256.491 249.673 258.081 248.495 259.371 247.024C259.956 246.359 260.475 245.64 260.923 244.876C261.27 244.29 261.571 243.679 261.822 243.047C262.662 240.956 262.976 238.691 262.736 236.451C262.497 234.211 261.711 232.064 260.449 230.198C259.186 228.332 257.485 226.804 255.495 225.748C253.505 224.692 251.286 224.141 249.033 224.143Z" fill="#CCCCCC"/>
<path d="M229.896 79.4649H63.0182V89.6715H229.896V79.4649Z" fill="#CCCCCC"/>
<path d="M144.926 76.403H147.988C148.725 76.403 149.455 76.5482 150.136 76.8303C150.817 77.1124 151.436 77.5259 151.958 78.0471C152.479 78.5684 152.892 79.1873 153.174 79.8683C153.457 80.5494 153.602 81.2794 153.602 82.0166H139.313C139.313 80.5278 139.904 79.0999 140.957 78.0471C142.01 76.9944 143.437 76.403 144.926 76.403Z" fill="#CCCCCC"/>
<path d="M262.013 244.249C257.549 249.538 252.721 254.509 247.563 259.125H49.4366C44.2795 254.509 39.4513 249.538 34.9874 244.249H262.013Z" fill="#3F3D56"/>
<path d="M165.087 192.726H131.728C131.549 192.724 131.37 192.752 131.199 192.808C130.837 192.92 130.52 193.145 130.295 193.451C130.071 193.756 129.95 194.125 129.95 194.504V247.204H166.87V194.504C166.87 194.27 166.823 194.039 166.734 193.823C166.644 193.607 166.512 193.411 166.347 193.246C166.181 193.081 165.985 192.95 165.768 192.861C165.552 192.771 165.321 192.726 165.087 192.726ZM152.462 218.727C152.463 219.581 152.181 220.413 151.66 221.09C151.163 221.748 150.472 222.233 149.685 222.477C148.897 222.722 148.053 222.713 147.271 222.452C146.489 222.19 145.808 221.691 145.326 221.022C144.843 220.354 144.582 219.551 144.579 218.727V212.612C144.589 211.573 145.009 210.58 145.747 209.849C146.485 209.117 147.482 208.707 148.521 208.707C149.56 208.707 150.557 209.117 151.295 209.849C152.033 210.58 152.452 211.573 152.462 212.612V218.727Z" fill="#2F2E41"/>
<path d="M129.837 245.518V250.6C129.837 250.864 129.942 251.116 130.127 251.303C130.313 251.49 130.565 251.596 130.829 251.597H165.991C166.254 251.595 166.506 251.489 166.692 251.302C166.877 251.116 166.982 250.863 166.983 250.6V245.518H129.837Z" fill="#3F3D56"/>
<path d="M220.325 110.486H77.7338C76.5087 110.488 75.3341 110.975 74.4673 111.84C73.6005 112.706 73.1122 113.88 73.1093 115.105V211.327C73.1102 212.554 73.5978 213.729 74.4648 214.596C75.3319 215.463 76.5076 215.951 77.7338 215.952H220.325C221.551 215.951 222.727 215.463 223.594 214.596C224.461 213.729 224.948 212.554 224.949 211.327V115.105C224.946 113.88 224.458 112.706 223.591 111.84C222.724 110.975 221.55 110.488 220.325 110.486Z" fill="#3F3D56"/>
<path d="M219.133 113.826H78.9208C78.2648 113.827 77.6362 114.089 77.1729 114.553C76.7095 115.018 76.4493 115.647 76.4492 116.303V210.14C76.4503 210.796 76.7111 211.424 77.1744 211.887C77.6376 212.35 78.2656 212.611 78.9208 212.612H219.133C219.788 212.611 220.416 212.35 220.879 211.887C221.342 211.424 221.603 210.796 221.604 210.14V116.303C221.604 115.647 221.344 115.018 220.88 114.553C220.417 114.089 219.789 113.827 219.133 113.826Z" fill="#6C63FF"/>
<path d="M193.327 251.515L192.033 245.364C191.979 245.113 191.863 244.88 191.696 244.685C191.53 244.49 191.317 244.341 191.077 244.249C190.903 244.181 190.719 244.146 190.532 244.146H109.7C109.513 244.146 109.329 244.181 109.155 244.249C108.916 244.341 108.703 244.49 108.536 244.685C108.369 244.88 108.253 245.113 108.199 245.364L106.905 251.515C106.858 251.738 106.861 251.969 106.915 252.191C106.969 252.412 107.071 252.619 107.215 252.797C107.358 252.974 107.54 253.117 107.746 253.215C107.952 253.313 108.177 253.364 108.405 253.365H191.822C192.051 253.366 192.277 253.315 192.483 253.216C192.69 253.118 192.871 252.973 193.014 252.794C193.158 252.618 193.261 252.411 193.315 252.19C193.369 251.969 193.374 251.738 193.327 251.515Z" fill="#2F2E41"/>
<path d="M112.611 245.254H110.543C110.405 245.254 110.292 245.366 110.292 245.505V246.545C110.292 246.683 110.405 246.796 110.543 246.796H112.611C112.749 246.796 112.862 246.683 112.862 246.545V245.505C112.862 245.366 112.749 245.254 112.611 245.254Z" fill="#3F3D56"/>
<path d="M117.749 245.254H115.682C115.543 245.254 115.431 245.366 115.431 245.505V246.545C115.431 246.683 115.543 246.796 115.682 246.796H117.749C117.888 246.796 118 246.683 118 246.545V245.505C118 245.366 117.888 245.254 117.749 245.254Z" fill="#3F3D56"/>
<path d="M122.888 245.254H120.82C120.681 245.254 120.569 245.366 120.569 245.505V246.545C120.569 246.683 120.681 246.796 120.82 246.796H122.888C123.026 246.796 123.138 246.683 123.138 246.545V245.505C123.138 245.366 123.026 245.254 122.888 245.254Z" fill="#3F3D56"/>
<path d="M128.026 245.254H125.958C125.82 245.254 125.708 245.366 125.708 245.505V246.545C125.708 246.683 125.82 246.796 125.958 246.796H128.026C128.164 246.796 128.277 246.683 128.277 246.545V245.505C128.277 245.366 128.164 245.254 128.026 245.254Z" fill="#3F3D56"/>
<path d="M133.164 245.254H131.097C130.958 245.254 130.846 245.366 130.846 245.505V246.545C130.846 246.683 130.958 246.796 131.097 246.796H133.164C133.303 246.796 133.415 246.683 133.415 246.545V245.505C133.415 245.366 133.303 245.254 133.164 245.254Z" fill="#3F3D56"/>
<path d="M138.303 245.254H136.235C136.097 245.254 135.984 245.366 135.984 245.505V246.545C135.984 246.683 136.097 246.796 136.235 246.796H138.303C138.441 246.796 138.554 246.683 138.554 246.545V245.505C138.554 245.366 138.441 245.254 138.303 245.254Z" fill="#3F3D56"/>
<path d="M143.441 245.254H141.374C141.235 245.254 141.123 245.366 141.123 245.505V246.545C141.123 246.683 141.235 246.796 141.374 246.796H143.441C143.58 246.796 143.692 246.683 143.692 246.545V245.505C143.692 245.366 143.58 245.254 143.441 245.254Z" fill="#3F3D56"/>
<path d="M148.58 245.254H146.512C146.374 245.254 146.261 245.366 146.261 245.505V246.545C146.261 246.683 146.374 246.796 146.512 246.796H148.58C148.718 246.796 148.83 246.683 148.83 246.545V245.505C148.83 245.366 148.718 245.254 148.58 245.254Z" fill="#3F3D56"/>
<path d="M153.718 245.254H151.65C151.512 245.254 151.4 245.366 151.4 245.505V246.545C151.4 246.683 151.512 246.796 151.65 246.796H153.718C153.856 246.796 153.969 246.683 153.969 246.545V245.505C153.969 245.366 153.856 245.254 153.718 245.254Z" fill="#3F3D56"/>
<path d="M158.856 245.254H156.789C156.65 245.254 156.538 245.366 156.538 245.505V246.545C156.538 246.683 156.65 246.796 156.789 246.796H158.856C158.995 246.796 159.107 246.683 159.107 246.545V245.505C159.107 245.366 158.995 245.254 158.856 245.254Z" fill="#3F3D56"/>
<path d="M163.995 245.254H161.927C161.789 245.254 161.676 245.366 161.676 245.505V246.545C161.676 246.683 161.789 246.796 161.927 246.796H163.995C164.133 246.796 164.246 246.683 164.246 246.545V245.505C164.246 245.366 164.133 245.254 163.995 245.254Z" fill="#3F3D56"/>
<path d="M169.133 245.254H167.066C166.927 245.254 166.815 245.366 166.815 245.505V246.545C166.815 246.683 166.927 246.796 167.066 246.796H169.133C169.272 246.796 169.384 246.683 169.384 246.545V245.505C169.384 245.366 169.272 245.254 169.133 245.254Z" fill="#3F3D56"/>
<path d="M174.272 245.254H172.204C172.066 245.254 171.953 245.366 171.953 245.505V246.545C171.953 246.683 172.066 246.796 172.204 246.796H174.272C174.41 246.796 174.522 246.683 174.522 246.545V245.505C174.522 245.366 174.41 245.254 174.272 245.254Z" fill="#3F3D56"/>
<path d="M179.41 245.254H177.343C177.204 245.254 177.092 245.366 177.092 245.505V246.545C177.092 246.683 177.204 246.796 177.343 246.796H179.41C179.549 246.796 179.661 246.683 179.661 246.545V245.505C179.661 245.366 179.549 245.254 179.41 245.254Z" fill="#3F3D56"/>
<path d="M184.548 245.254H182.481C182.342 245.254 182.23 245.366 182.23 245.505V246.545C182.23 246.683 182.342 246.796 182.481 246.796H184.548C184.687 246.796 184.799 246.683 184.799 246.545V245.505C184.799 245.366 184.687 245.254 184.548 245.254Z" fill="#3F3D56"/>
<path d="M189.687 245.254H187.619C187.481 245.254 187.368 245.366 187.368 245.505V246.545C187.368 246.683 187.481 246.796 187.619 246.796H189.687C189.825 246.796 189.938 246.683 189.938 246.545V245.505C189.938 245.366 189.825 245.254 189.687 245.254Z" fill="#3F3D56"/>
<path d="M112.55 247.823H110.482C110.344 247.823 110.232 247.936 110.232 248.074V249.114C110.232 249.252 110.344 249.365 110.482 249.365H112.55C112.689 249.365 112.801 249.252 112.801 249.114V248.074C112.801 247.936 112.689 247.823 112.55 247.823Z" fill="#3F3D56"/>
<path d="M117.688 247.823H115.621C115.482 247.823 115.37 247.936 115.37 248.074V249.114C115.37 249.252 115.482 249.365 115.621 249.365H117.688C117.827 249.365 117.939 249.252 117.939 249.114V248.074C117.939 247.936 117.827 247.823 117.688 247.823Z" fill="#3F3D56"/>
<path d="M122.827 247.823H120.759C120.621 247.823 120.508 247.936 120.508 248.074V249.114C120.508 249.252 120.621 249.365 120.759 249.365H122.827C122.965 249.365 123.078 249.252 123.078 249.114V248.074C123.078 247.936 122.965 247.823 122.827 247.823Z" fill="#3F3D56"/>
<path d="M127.965 247.823H125.898C125.759 247.823 125.647 247.936 125.647 248.074V249.114C125.647 249.252 125.759 249.365 125.898 249.365H127.965C128.104 249.365 128.216 249.252 128.216 249.114V248.074C128.216 247.936 128.104 247.823 127.965 247.823Z" fill="#3F3D56"/>
<path d="M133.104 247.823H131.036C130.898 247.823 130.785 247.936 130.785 248.074V249.114C130.785 249.252 130.898 249.365 131.036 249.365H133.104C133.242 249.365 133.354 249.252 133.354 249.114V248.074C133.354 247.936 133.242 247.823 133.104 247.823Z" fill="#3F3D56"/>
<path d="M138.242 247.823H136.174C136.036 247.823 135.924 247.936 135.924 248.074V249.114C135.924 249.252 136.036 249.365 136.174 249.365H138.242C138.381 249.365 138.493 249.252 138.493 249.114V248.074C138.493 247.936 138.381 247.823 138.242 247.823Z" fill="#3F3D56"/>
<path d="M143.38 247.823H141.313C141.174 247.823 141.062 247.936 141.062 248.074V249.114C141.062 249.252 141.174 249.365 141.313 249.365H143.38C143.519 249.365 143.631 249.252 143.631 249.114V248.074C143.631 247.936 143.519 247.823 143.38 247.823Z" fill="#3F3D56"/>
<path d="M148.519 247.823H146.451C146.313 247.823 146.201 247.936 146.201 248.074V249.114C146.201 249.252 146.313 249.365 146.451 249.365H148.519C148.657 249.365 148.77 249.252 148.77 249.114V248.074C148.77 247.936 148.657 247.823 148.519 247.823Z" fill="#3F3D56"/>
<path d="M153.657 247.823H151.59C151.451 247.823 151.339 247.936 151.339 248.074V249.114C151.339 249.252 151.451 249.365 151.59 249.365H153.657C153.796 249.365 153.908 249.252 153.908 249.114V248.074C153.908 247.936 153.796 247.823 153.657 247.823Z" fill="#3F3D56"/>
<path d="M158.796 247.823H156.728C156.59 247.823 156.477 247.936 156.477 248.074V249.114C156.477 249.252 156.59 249.365 156.728 249.365H158.796C158.934 249.365 159.046 249.252 159.046 249.114V248.074C159.046 247.936 158.934 247.823 158.796 247.823Z" fill="#3F3D56"/>
<path d="M163.934 247.823H161.867C161.728 247.823 161.616 247.936 161.616 248.074V249.114C161.616 249.252 161.728 249.365 161.867 249.365H163.934C164.073 249.365 164.185 249.252 164.185 249.114V248.074C164.185 247.936 164.073 247.823 163.934 247.823Z" fill="#3F3D56"/>
<path d="M169.073 247.823H167.005C166.866 247.823 166.754 247.936 166.754 248.074V249.114C166.754 249.252 166.866 249.365 167.005 249.365H169.073C169.211 249.365 169.323 249.252 169.323 249.114V248.074C169.323 247.936 169.211 247.823 169.073 247.823Z" fill="#3F3D56"/>
<path d="M174.211 247.823H172.143C172.005 247.823 171.893 247.936 171.893 248.074V249.114C171.893 249.252 172.005 249.365 172.143 249.365H174.211C174.349 249.365 174.462 249.252 174.462 249.114V248.074C174.462 247.936 174.349 247.823 174.211 247.823Z" fill="#3F3D56"/>
<path d="M179.349 247.823H177.282C177.143 247.823 177.031 247.936 177.031 248.074V249.114C177.031 249.252 177.143 249.365 177.282 249.365H179.349C179.488 249.365 179.6 249.252 179.6 249.114V248.074C179.6 247.936 179.488 247.823 179.349 247.823Z" fill="#3F3D56"/>
<path d="M184.488 247.823H182.42C182.282 247.823 182.169 247.936 182.169 248.074V249.114C182.169 249.252 182.282 249.365 182.42 249.365H184.488C184.626 249.365 184.739 249.252 184.739 249.114V248.074C184.739 247.936 184.626 247.823 184.488 247.823Z" fill="#3F3D56"/>
<path d="M189.626 247.823H187.559C187.42 247.823 187.308 247.936 187.308 248.074V249.114C187.308 249.252 187.42 249.365 187.559 249.365H189.626C189.765 249.365 189.877 249.252 189.877 249.114V248.074C189.877 247.936 189.765 247.823 189.626 247.823Z" fill="#3F3D56"/>
<path d="M155.199 250.906H135.147C135.008 250.906 134.896 251.019 134.896 251.157V252.197C134.896 252.336 135.008 252.448 135.147 252.448H155.199C155.337 252.448 155.45 252.336 155.45 252.197V251.157C155.45 251.019 155.337 250.906 155.199 250.906Z" fill="#3F3D56"/>
<path d="M212.087 126.753H80.8913C80.7549 126.75 80.6251 126.693 80.5297 126.596C80.4343 126.498 80.3809 126.367 80.3809 126.231C80.3809 126.094 80.4343 125.963 80.5297 125.866C80.6251 125.768 80.7549 125.712 80.8913 125.709H212.087C212.223 125.712 212.353 125.768 212.448 125.866C212.544 125.963 212.597 126.094 212.597 126.231C212.597 126.367 212.544 126.498 212.448 126.596C212.353 126.693 212.223 126.75 212.087 126.753Z" fill="#3F3D56"/>
<path d="M89.8219 123.045C91.5106 123.045 92.8795 121.646 92.8795 119.92C92.8795 118.193 91.5106 116.794 89.8219 116.794C88.1333 116.794 86.7643 118.193 86.7643 119.92C86.7643 121.646 88.1333 123.045 89.8219 123.045Z" fill="#3F3D56"/>
<path d="M100.384 123.045C102.073 123.045 103.442 121.646 103.442 119.92C103.442 118.193 102.073 116.794 100.384 116.794C98.6958 116.794 97.3269 118.193 97.3269 119.92C97.3269 121.646 98.6958 123.045 100.384 123.045Z" fill="#3F3D56"/>
<path d="M110.947 123.045C112.636 123.045 114.005 121.646 114.005 119.92C114.005 118.193 112.636 116.794 110.947 116.794C109.258 116.794 107.889 118.193 107.889 119.92C107.889 121.646 109.258 123.045 110.947 123.045Z" fill="#3F3D56"/>
<path d="M205.726 117.567H198.224C198.076 117.57 197.935 117.632 197.831 117.738C197.728 117.844 197.67 117.986 197.67 118.135C197.67 118.283 197.728 118.425 197.831 118.531C197.935 118.638 198.076 118.699 198.224 118.702H205.726C205.876 118.7 206.018 118.64 206.123 118.533C206.228 118.427 206.286 118.284 206.286 118.135C206.286 117.985 206.228 117.842 206.123 117.736C206.018 117.63 205.876 117.569 205.726 117.567Z" fill="#3F3D56"/>
<path d="M205.726 119.699H198.224C198.076 119.702 197.935 119.764 197.831 119.87C197.727 119.976 197.669 120.119 197.669 120.267C197.669 120.415 197.727 120.558 197.831 120.664C197.935 120.77 198.076 120.832 198.224 120.835H205.726C205.876 120.833 206.019 120.772 206.124 120.666C206.229 120.56 206.287 120.416 206.287 120.267C206.287 120.118 206.229 119.974 206.124 119.868C206.019 119.762 205.876 119.701 205.726 119.699Z" fill="#3F3D56"/>
<path d="M205.726 121.832H198.224C198.076 121.835 197.935 121.896 197.831 122.003C197.728 122.109 197.67 122.251 197.67 122.399C197.67 122.548 197.728 122.69 197.831 122.796C197.935 122.902 198.076 122.964 198.224 122.967H205.726C205.876 122.965 206.018 122.904 206.123 122.798C206.228 122.692 206.286 122.549 206.286 122.399C206.286 122.25 206.228 122.107 206.123 122.001C206.018 121.895 205.876 121.834 205.726 121.832Z" fill="#3F3D56"/>
<path d="M92.2037 138.877H89.508C88.6907 138.877 88.0282 139.54 88.0282 140.357C88.0282 141.175 88.6907 141.837 89.508 141.837H92.2037C93.021 141.837 93.6836 141.175 93.6836 140.357C93.6836 139.54 93.021 138.877 92.2037 138.877Z" fill="#E6E6E6"/>
<path d="M123.034 138.877H120.338C119.521 138.877 118.859 139.54 118.859 140.357C118.859 141.175 119.521 141.837 120.338 141.837H123.034C123.851 141.837 124.514 141.175 124.514 140.357C124.514 139.54 123.851 138.877 123.034 138.877Z" fill="#E6E6E6"/>
<path d="M131.769 138.877H129.074C128.256 138.877 127.594 139.54 127.594 140.357C127.594 141.175 128.256 141.837 129.074 141.837H131.769C132.587 141.837 133.249 141.175 133.249 140.357C133.249 139.54 132.587 138.877 131.769 138.877Z" fill="#E6E6E6"/>
<path d="M114.648 138.631H97.894C97.0767 138.631 96.4142 139.293 96.4142 140.111C96.4142 140.928 97.0767 141.59 97.894 141.59H114.648C115.466 141.59 116.128 140.928 116.128 140.111C116.128 139.293 115.466 138.631 114.648 138.631Z" fill="#E6E6E6"/>
<path d="M155.755 138.631H139.001C138.184 138.631 137.521 139.293 137.521 140.111C137.521 140.928 138.184 141.59 139.001 141.59H155.755C156.573 141.59 157.235 140.928 157.235 140.111C157.235 139.293 156.573 138.631 155.755 138.631Z" fill="#E6E6E6"/>
<path d="M100.425 145.557H97.7295C96.9122 145.557 96.2496 146.22 96.2496 147.037C96.2496 147.854 96.9122 148.517 97.7295 148.517H100.425C101.242 148.517 101.905 147.854 101.905 147.037C101.905 146.22 101.242 145.557 100.425 145.557Z" fill="#E6E6E6"/>
<path d="M131.256 145.557H128.56C127.743 145.557 127.08 146.22 127.08 147.037C127.08 147.854 127.743 148.517 128.56 148.517H131.256C132.073 148.517 132.735 147.854 132.735 147.037C132.735 146.22 132.073 145.557 131.256 145.557Z" fill="#E6E6E6"/>
<path d="M139.991 145.557H137.295C136.478 145.557 135.815 146.22 135.815 147.037C135.815 147.854 136.478 148.517 137.295 148.517H139.991C140.808 148.517 141.471 147.854 141.471 147.037C141.471 146.22 140.808 145.557 139.991 145.557Z" fill="#E6E6E6"/>
<path d="M122.87 145.311H106.115C105.298 145.311 104.636 145.973 104.636 146.791C104.636 147.608 105.298 148.27 106.115 148.27H122.87C123.687 148.27 124.349 147.608 124.349 146.791C124.349 145.973 123.687 145.311 122.87 145.311Z" fill="#E6E6E6"/>
<path d="M163.977 145.311H147.223C146.405 145.311 145.743 145.973 145.743 146.791C145.743 147.608 146.405 148.27 147.223 148.27H163.977C164.794 148.27 165.457 147.608 165.457 146.791C165.457 145.973 164.794 145.311 163.977 145.311Z" fill="#E6E6E6"/>
<path d="M108.647 152.237H105.951C105.134 152.237 104.471 152.9 104.471 153.717C104.471 154.534 105.134 155.197 105.951 155.197H108.647C109.464 155.197 110.126 154.534 110.126 153.717C110.126 152.9 109.464 152.237 108.647 152.237Z" fill="#E6E6E6"/>
<path d="M139.477 152.237H136.781C135.964 152.237 135.302 152.9 135.302 153.717C135.302 154.534 135.964 155.197 136.781 155.197H139.477C140.294 155.197 140.957 154.534 140.957 153.717C140.957 152.9 140.294 152.237 139.477 152.237Z" fill="#E6E6E6"/>
<path d="M148.212 152.237H145.517C144.699 152.237 144.037 152.9 144.037 153.717C144.037 154.534 144.699 155.197 145.517 155.197H148.212C149.03 155.197 149.692 154.534 149.692 153.717C149.692 152.9 149.03 152.237 148.212 152.237Z" fill="#E6E6E6"/>
<path d="M131.091 151.991H114.337C113.52 151.991 112.857 152.653 112.857 153.47C112.857 154.288 113.52 154.95 114.337 154.95H131.091C131.908 154.95 132.571 154.288 132.571 153.47C132.571 152.653 131.908 151.991 131.091 151.991Z" fill="#E6E6E6"/>
<path d="M172.198 151.991H155.444C154.627 151.991 153.964 152.653 153.964 153.47C153.964 154.288 154.627 154.95 155.444 154.95H172.198C173.016 154.95 173.678 154.288 173.678 153.47C173.678 152.653 173.016 151.991 172.198 151.991Z" fill="#E6E6E6"/>
<path d="M116.868 158.917H114.172C113.355 158.917 112.693 159.58 112.693 160.397C112.693 161.214 113.355 161.877 114.172 161.877H116.868C117.685 161.877 118.348 161.214 118.348 160.397C118.348 159.58 117.685 158.917 116.868 158.917Z" fill="#E6E6E6"/>
<path d="M147.699 158.917H145.003C144.186 158.917 143.523 159.58 143.523 160.397C143.523 161.214 144.186 161.877 145.003 161.877H147.699C148.516 161.877 149.178 161.214 149.178 160.397C149.178 159.58 148.516 158.917 147.699 158.917Z" fill="#E6E6E6"/>
<path d="M156.434 158.917H153.738C152.921 158.917 152.258 159.58 152.258 160.397C152.258 161.214 152.921 161.877 153.738 161.877H156.434C157.251 161.877 157.914 161.214 157.914 160.397C157.914 159.58 157.251 158.917 156.434 158.917Z" fill="#E6E6E6"/>
<path d="M139.313 158.671H122.558C121.741 158.671 121.078 159.333 121.078 160.15C121.078 160.968 121.741 161.63 122.558 161.63H139.313C140.13 161.63 140.792 160.968 140.792 160.15C140.792 159.333 140.13 158.671 139.313 158.671Z" fill="#E6E6E6"/>
<path d="M123.034 185.479H120.338C119.521 185.479 118.859 186.142 118.859 186.959C118.859 187.777 119.521 188.439 120.338 188.439H123.034C123.851 188.439 124.514 187.777 124.514 186.959C124.514 186.142 123.851 185.479 123.034 185.479Z" fill="#E6E6E6"/>
<path d="M131.769 185.479H129.074C128.256 185.479 127.594 186.142 127.594 186.959C127.594 187.777 128.256 188.439 129.074 188.439H131.769C132.587 188.439 133.249 187.777 133.249 186.959C133.249 186.142 132.587 185.479 131.769 185.479Z" fill="#E6E6E6"/>
<path d="M155.755 185.726H139.001C138.184 185.726 137.521 186.389 137.521 187.206C137.521 188.023 138.184 188.686 139.001 188.686H155.755C156.573 188.686 157.235 188.023 157.235 187.206C157.235 186.389 156.573 185.726 155.755 185.726Z" fill="#E6E6E6"/>
<path d="M92.2037 185.479H89.508C88.6907 185.479 88.0282 186.142 88.0282 186.959C88.0282 187.777 88.6907 188.439 89.508 188.439H92.2037C93.021 188.439 93.6836 187.777 93.6836 186.959C93.6836 186.142 93.021 185.479 92.2037 185.479Z" fill="#E6E6E6"/>
<path d="M114.648 185.726H97.894C97.0767 185.726 96.4142 186.389 96.4142 187.206C96.4142 188.023 97.0767 188.686 97.894 188.686H114.648C115.466 188.686 116.128 188.023 116.128 187.206C116.128 186.389 115.466 185.726 114.648 185.726Z" fill="#E6E6E6"/>
<path d="M100.425 178.8H97.7295C96.9122 178.8 96.2496 179.462 96.2496 180.279C96.2496 181.097 96.9122 181.759 97.7295 181.759H100.425C101.242 181.759 101.905 181.097 101.905 180.279C101.905 179.462 101.242 178.8 100.425 178.8Z" fill="#E6E6E6"/>
<path d="M131.256 178.8H128.56C127.743 178.8 127.08 179.462 127.08 180.279C127.08 181.097 127.743 181.759 128.56 181.759H131.256C132.073 181.759 132.735 181.097 132.735 180.279C132.735 179.462 132.073 178.8 131.256 178.8Z" fill="#E6E6E6"/>
<path d="M139.991 178.8H137.295C136.478 178.8 135.815 179.462 135.815 180.279C135.815 181.097 136.478 181.759 137.295 181.759H139.991C140.808 181.759 141.471 181.097 141.471 180.279C141.471 179.462 140.808 178.8 139.991 178.8Z" fill="#E6E6E6"/>
<path d="M122.87 179.046H106.115C105.298 179.046 104.636 179.709 104.636 180.526C104.636 181.343 105.298 182.006 106.115 182.006H122.87C123.687 182.006 124.349 181.343 124.349 180.526C124.349 179.709 123.687 179.046 122.87 179.046Z" fill="#E6E6E6"/>
<path d="M108.647 172.12H105.951C105.134 172.12 104.471 172.782 104.471 173.599C104.471 174.417 105.134 175.079 105.951 175.079H108.647C109.464 175.079 110.126 174.417 110.126 173.599C110.126 172.782 109.464 172.12 108.647 172.12Z" fill="#E6E6E6"/>
<path d="M139.477 172.12H136.781C135.964 172.12 135.302 172.782 135.302 173.599C135.302 174.417 135.964 175.079 136.781 175.079H139.477C140.294 175.079 140.957 174.417 140.957 173.599C140.957 172.782 140.294 172.12 139.477 172.12Z" fill="#E6E6E6"/>
<path d="M148.212 172.12H145.517C144.699 172.12 144.037 172.782 144.037 173.599C144.037 174.417 144.699 175.079 145.517 175.079H148.212C149.03 175.079 149.692 174.417 149.692 173.599C149.692 172.782 149.03 172.12 148.212 172.12Z" fill="#E6E6E6"/>
<path d="M131.091 172.366H114.337C113.52 172.366 112.857 173.029 112.857 173.846C112.857 174.663 113.52 175.326 114.337 175.326H131.091C131.908 175.326 132.571 174.663 132.571 173.846C132.571 173.029 131.908 172.366 131.091 172.366Z" fill="#E6E6E6"/>
<path d="M116.868 165.44H114.172C113.355 165.44 112.693 166.102 112.693 166.92C112.693 167.737 113.355 168.399 114.172 168.399H116.868C117.685 168.399 118.348 167.737 118.348 166.92C118.348 166.102 117.685 165.44 116.868 165.44Z" fill="#E6E6E6"/>
<path d="M147.699 165.44H145.003C144.186 165.44 143.523 166.102 143.523 166.92C143.523 167.737 144.186 168.399 145.003 168.399H147.699C148.516 168.399 149.178 167.737 149.178 166.92C149.178 166.102 148.516 165.44 147.699 165.44Z" fill="#E6E6E6"/>
<path d="M156.434 165.44H153.738C152.921 165.44 152.258 166.102 152.258 166.92C152.258 167.737 152.921 168.399 153.738 168.399H156.434C157.251 168.399 157.914 167.737 157.914 166.92C157.914 166.102 157.251 165.44 156.434 165.44Z" fill="#E6E6E6"/>
<path d="M139.313 165.686H122.558C121.741 165.686 121.078 166.349 121.078 167.166C121.078 167.984 121.741 168.646 122.558 168.646H139.313C140.13 168.646 140.792 167.984 140.792 167.166C140.792 166.349 140.13 165.686 139.313 165.686Z" fill="#E6E6E6"/>
<path d="M213.66 281.98C213.347 282.14 213.028 282.299 212.715 282.453C204.596 286.512 198.101 288.82 189.217 291.348C188.467 282.972 187.742 268.251 187.038 259.125C186.853 256.756 186.668 254.767 186.488 253.365C186.443 252.619 186.291 251.883 186.036 251.181L186.067 253.365L186.144 259.125L186.591 292.067C175.54 294.991 164.187 296.628 152.76 296.943C152.164 296.959 151.578 296.969 151.013 296.979C150.812 296.985 150.617 296.99 150.422 296.99C149.779 296.995 149.142 297 148.5 297C136.458 297.009 124.459 295.554 112.768 292.668C113.019 284.38 113.271 269.823 113.513 259.125C113.564 257.033 113.61 255.086 113.662 253.365C113.759 249.686 113.862 247.034 113.96 246.145C113.873 246.303 113.806 246.47 113.759 246.644C113.283 248.859 112.959 251.105 112.788 253.365C112.608 255.086 112.428 257.033 112.249 259.125C111.293 270.239 110.296 285.351 109.268 291.759C103.151 290.089 97.149 288.024 91.2992 285.577C88.2162 284.293 85.188 282.907 82.2145 281.42C82.7798 277.721 83.3707 273.574 83.977 269.273C84.4497 265.938 84.9379 262.511 85.4363 259.125C86.2071 253.894 86.9984 248.766 87.8 244.249C88.9715 237.651 90.1739 232.349 91.366 229.913C92.4965 227.601 93.6269 225.319 94.7214 223.135C95.1017 222.37 95.4819 221.614 95.8519 220.88C95.9392 220.705 96.0266 220.535 96.1139 220.366C96.9001 218.819 97.6606 217.339 98.3851 215.952C99.0069 214.765 99.5978 213.645 100.158 212.612C101.514 210.104 102.665 208.106 103.518 206.841C107.084 201.432 112.393 197.405 118.564 195.429L118.718 195.388L118.826 195.434L129.334 192.207L130.87 191.735L131.903 191.416L135.541 188.646L137.519 187.141L139.374 185.728L143.002 182.968L165.462 184.351L169.835 194.879L179.628 198.461L179.798 198.384L179.947 198.322L180.101 198.363C186.271 200.341 191.579 204.368 195.146 209.776C195.629 210.5 196.215 211.456 196.878 212.612C197.443 213.593 198.06 214.714 198.728 215.952C199.679 217.714 200.717 219.703 201.816 221.856C202.058 222.329 202.304 222.812 202.551 223.3C203.008 224.204 203.472 225.127 203.943 226.069C205.038 228.253 206.168 230.535 207.299 232.852C208.28 234.861 209.272 238.992 210.248 244.249C211.055 248.617 211.857 253.765 212.632 259.125C213.65 266.072 212.566 274.391 213.485 280.783C213.542 281.189 213.604 281.585 213.66 281.98Z" fill="#3F3D56"/>
<path d="M148.816 174.564C163.243 174.564 174.938 162.869 174.938 148.443C174.938 134.016 163.243 122.321 148.816 122.321C134.389 122.321 122.694 134.016 122.694 148.443C122.694 162.869 134.389 174.564 148.816 174.564Z" fill="#A0616A"/>
<path d="M191.894 113.826C191.378 112.621 190.691 111.496 189.854 110.486C185.887 105.641 178.673 103.508 171.268 109.243C169.843 108.924 168.357 109.01 166.978 109.489C166.326 109.725 165.716 110.061 165.169 110.486C164.048 111.361 163.173 112.512 162.631 113.826C162.341 114.52 162.15 115.252 162.065 116C160.235 115.049 158.298 114.319 156.295 113.826C151.38 112.604 146.241 112.604 141.327 113.826C139.752 114.224 138.235 114.826 136.815 115.614C134.41 117.002 133.028 118.754 132.782 120.701C129.313 120.896 125.706 122.721 123.019 125.711C122.715 126.045 122.423 126.395 122.15 126.754C119.89 129.711 118.676 133.335 118.697 137.057V137.709H119.35C121.138 137.708 122.909 138.053 124.565 138.727C125.638 139.158 126.655 139.719 127.592 140.397C128.205 140.832 128.784 141.313 129.323 141.835C130.575 143.047 131.635 144.442 132.468 145.972C134.603 149.838 135.343 154.321 134.565 158.669C134.386 159.675 134.125 160.665 133.784 161.629C133.298 163.003 132.659 164.319 131.877 165.549C131.846 165.595 131.821 165.642 131.79 165.688C131.446 166.238 131.117 166.798 130.808 167.363C130.577 167.784 130.361 168.216 130.161 168.648C129.575 169.849 129.081 171.093 128.681 172.368C127.966 174.624 127.545 176.962 127.427 179.325C127.391 179.952 127.381 180.579 127.402 181.206C127.432 182.822 127.609 184.432 127.931 186.016C127.977 186.231 128.023 186.442 128.07 186.658L128.445 188.297L129.334 192.207L129.95 194.9L130.521 197.397L131.363 196.19C131.651 195.779 132.376 194.514 133.347 192.726C133.989 191.56 134.734 190.167 135.541 188.646C136.666 186.514 137.899 184.135 139.107 181.761C139.595 180.8 140.078 179.844 140.546 178.909C141.43 177.136 142.262 175.425 142.976 173.904C143.634 172.502 144.194 171.258 144.61 170.261C144.739 170.914 144.847 171.577 144.929 172.245C145.021 172.923 145.088 173.611 145.124 174.3C145.134 174.403 145.139 174.511 145.145 174.613L145.165 175.035L145.17 175.158L145.715 175.23C148.856 175.566 152.023 175.591 155.17 175.302H155.175C159.343 174.988 163.432 173.997 167.281 172.368C169.467 171.42 171.508 170.167 173.344 168.648C174.202 167.938 175.003 167.161 175.739 166.325C175.924 166.115 176.104 165.904 176.278 165.688C177.295 164.438 178.166 163.076 178.873 161.629C179.347 160.673 179.749 159.684 180.076 158.669C182.049 152.693 181.936 145.237 179.736 136.379C180.33 136.264 180.899 136.045 181.417 135.731C183.03 134.76 184.15 132.833 184.5 130.48L185.055 130.629C187.022 129.712 188.774 128.392 190.198 126.754C190.48 126.421 190.744 126.073 190.99 125.711C193.502 122.012 193.523 117.572 191.894 113.826Z" fill="#2F2E41"/>
<path opacity="0.2" d="M106.016 244.226L110.382 227.377L114.237 241.916L106.016 244.226Z" fill="black"/>
<path d="M222.2 233.248C220.638 254.767 222.257 264.243 213.634 281.986C205.789 285.825 197.618 288.958 189.217 291.348C188.343 291.594 187.468 291.834 186.591 292.067C175.54 294.991 164.187 296.628 152.76 296.943C152.164 296.959 151.578 296.969 151.013 296.979C150.812 296.985 150.617 296.99 150.422 296.99C149.779 296.995 149.142 297 148.5 297C136.458 297.009 124.459 295.554 112.768 292.668C111.596 292.381 110.43 292.077 109.268 291.759C103.151 290.089 97.149 288.024 91.2993 285.577C88.2162 284.293 85.188 282.907 82.2146 281.42C81.5414 281.081 80.8683 280.742 80.2054 280.393C76.7987 274.401 74.8615 267.115 74.8204 258.359C77.1789 243.273 216.99 220.237 222.2 233.248Z" fill="#2F2E41"/>
<path opacity="0.2" d="M222.196 236.933C222.276 235.601 222.365 234.225 222.469 232.792C217.259 219.781 77.4478 242.817 75.0893 257.903C75.0958 259.286 75.1549 260.628 75.2544 261.939C80.966 247.049 213.788 225.155 222.196 236.933Z" fill="black"/>
<path d="M83.8051 175.811C83.8392 175.346 83.7731 174.878 83.6112 174.44C83.4493 174.002 83.1954 173.603 82.8667 173.271C82.5379 172.939 82.1419 172.682 81.7052 172.516C81.2686 172.35 80.8015 172.28 80.3353 172.309C80.1616 172.316 79.9888 172.338 79.8189 172.374L59.3875 176.99C58.9309 177.1 58.5026 177.305 58.1301 177.592C57.7577 177.878 57.4493 178.239 57.2249 178.652C56.9252 178.663 56.6277 178.706 56.3373 178.781C55.7014 178.925 55.1003 179.193 54.568 179.569C54.0358 179.946 53.5828 180.423 53.2352 180.975C52.8875 181.526 52.6518 182.141 52.5417 182.784C52.4315 183.426 52.449 184.084 52.5931 184.72C52.7372 185.356 53.0051 185.957 53.3816 186.489C53.7581 187.021 54.2357 187.474 54.7871 187.822C55.9009 188.524 57.248 188.755 58.5321 188.464C59.263 188.294 59.9467 187.964 60.5332 187.496L67.4567 206.991C67.8026 207.602 68.3369 208.085 68.9797 208.367C69.6226 208.649 70.3395 208.716 71.0233 208.557L84.3054 205.555C84.984 205.396 85.5947 205.026 86.0499 204.498C86.5051 203.971 86.7814 203.312 86.8391 202.618L83.8051 175.811ZM58.2254 187.076C57.3084 187.283 56.3467 187.118 55.5513 186.617C54.7559 186.116 54.1916 185.32 53.9823 184.403C53.7729 183.487 53.9355 182.524 54.4345 181.728C54.9334 180.931 55.728 180.365 56.6439 180.153C56.7084 180.137 56.773 180.153 56.8375 180.137C56.8327 180.725 56.983 181.304 57.2733 181.815L59.807 186.237C59.3659 186.655 58.8191 186.945 58.2254 187.076Z" fill="#2F2E41"/>
<path d="M80.3353 172.309C80.529 174.892 76.107 177.861 70.1842 179.039C64.7454 180.153 59.8716 179.378 58.4998 177.345C58.7755 177.181 59.075 177.061 59.3875 176.99L79.8189 172.374C79.9888 172.338 80.1616 172.316 80.3353 172.309Z" fill="#3F3D56"/>
<path d="M66.205 237.86L77.6809 232.122L68.1176 206.301L65.5973 193.279C65.2698 191.587 64.5041 190.011 63.3767 188.708C62.2492 187.405 60.7995 186.42 59.1724 185.853C57.5453 185.286 55.7978 185.155 54.1045 185.475C52.4113 185.795 50.8315 186.553 49.5232 187.674C47.5844 189.336 46.3671 191.686 46.1281 194.229C45.8892 196.771 46.6473 199.307 48.2424 201.301L57.598 212.995L66.205 237.86Z" fill="#A0616A"/>
<path d="M77.6809 227.34L62.3796 234.991L73.9917 271.375C74.8255 273.988 76.3203 276.341 78.3312 278.206C80.342 280.071 82.8006 281.385 85.4687 282.02C88.7584 282.803 92.2122 282.519 95.3292 281.207C98.4462 279.895 101.064 277.625 102.804 274.725L133.596 221.946C135.778 218.31 136.452 213.964 135.473 209.837C134.494 205.71 131.94 202.13 128.357 199.861C126.43 198.64 124.268 197.839 122.011 197.51C119.753 197.18 117.452 197.33 115.257 197.948C113.061 198.567 111.02 199.641 109.267 201.101C107.514 202.56 106.088 204.373 105.082 206.42L86.288 246.467L77.6809 227.34Z" fill="#3F3D56"/>
<path d="M72.9483 194.459C72.9199 194.459 72.8916 194.454 72.8648 194.445L69.5241 193.294C69.4837 193.281 69.4474 193.257 69.4185 193.226C69.3896 193.194 69.3689 193.156 69.3585 193.115C69.348 193.073 69.348 193.03 69.3584 192.989C69.3689 192.947 69.3895 192.909 69.4184 192.878L71.9031 190.173C71.9258 190.148 71.9533 190.128 71.9839 190.113C72.0145 190.099 72.0477 190.091 72.0815 190.089C72.1152 190.088 72.149 190.093 72.1808 190.104C72.2126 190.116 72.2417 190.134 72.2667 190.156C72.2916 190.179 72.3117 190.207 72.326 190.238C72.3402 190.268 72.3482 190.301 72.3496 190.335C72.351 190.369 72.3457 190.403 72.334 190.434C72.3223 190.466 72.3044 190.495 72.2814 190.52L70.0622 192.936L73.0319 193.959C73.0894 193.979 73.138 194.018 73.1691 194.07C73.2002 194.123 73.2117 194.184 73.2017 194.244C73.1917 194.304 73.1607 194.359 73.1143 194.398C73.0679 194.437 73.0091 194.459 72.9483 194.459Z" fill="#6C63FF"/>
<path d="M77.5275 193.521C77.4763 193.521 77.4263 193.506 77.3838 193.477C77.3414 193.449 77.3085 193.408 77.2893 193.361C77.2701 193.313 77.2655 193.261 77.2761 193.211C77.2867 193.161 77.312 193.115 77.3488 193.08L79.6069 190.896L76.5736 189.646C76.5423 189.634 76.5139 189.615 76.49 189.591C76.466 189.567 76.447 189.539 76.434 189.508C76.421 189.477 76.4143 189.443 76.4142 189.409C76.4141 189.376 76.4207 189.342 76.4336 189.311C76.4464 189.28 76.4653 189.251 76.4892 189.228C76.513 189.204 76.5413 189.185 76.5725 189.172C76.6037 189.159 76.6371 189.152 76.6709 189.152C76.7046 189.152 76.7381 189.159 76.7693 189.172L80.1654 190.571C80.2049 190.587 80.2397 190.613 80.2666 190.646C80.2936 190.679 80.312 190.719 80.32 190.76C80.328 190.802 80.3255 190.845 80.3126 190.886C80.2997 190.927 80.2769 190.964 80.2462 190.993L77.7061 193.449C77.6582 193.495 77.5941 193.521 77.5275 193.521Z" fill="#6C63FF"/>
<path d="M73.6496 196.03C73.624 196.03 73.5985 196.026 73.5741 196.019C73.5418 196.009 73.5118 195.993 73.4858 195.971C73.4598 195.95 73.4382 195.923 73.4224 195.893C73.4066 195.864 73.3969 195.831 73.3937 195.797C73.3905 195.764 73.394 195.73 73.404 195.698L75.7752 187.99C75.7955 187.925 75.8407 187.871 75.9009 187.839C75.9611 187.807 76.0313 187.801 76.0963 187.821C76.1613 187.841 76.2158 187.886 76.2476 187.946C76.2795 188.006 76.2863 188.076 76.2665 188.142L73.8952 195.849C73.879 195.902 73.8464 195.948 73.8022 195.98C73.758 196.013 73.7045 196.03 73.6496 196.03Z" fill="#6C63FF"/>
</g>
<defs>
<clipPath id="clip0_54720_211">
<rect width="297" height="297" fill="white"/>
</clipPath>
</defs>
</svg>
