<svg width="260" height="253" viewBox="0 0 260 253" fill="none" xmlns="http://www.w3.org/2000/svg">
<path d="M297 148.5C297.052 183.554 284.652 217.487 262.013 244.249C261.19 245.225 260.353 246.186 259.5 247.142C249.462 258.431 237.769 268.131 224.821 275.912C221.851 277.695 218.816 279.375 215.715 280.953C215.402 281.112 215.083 281.271 214.77 281.426C214.395 281.616 214.015 281.801 213.634 281.986C205.789 285.825 197.618 288.958 189.217 291.348C188.343 291.594 187.468 291.834 186.591 292.067C175.54 294.991 164.187 296.628 152.76 296.944C152.164 296.959 151.578 296.969 151.013 296.979C150.812 296.985 150.617 296.99 150.422 296.99C149.779 296.995 149.142 297 148.5 297C136.458 297.009 124.459 295.554 112.767 292.668C111.596 292.381 110.429 292.077 109.268 291.759C103.151 290.089 97.149 288.024 91.2992 285.577C88.2161 284.293 85.1879 282.907 82.2145 281.42C81.5414 281.081 80.8682 280.742 80.2054 280.393C79.9228 280.254 79.6453 280.105 79.3678 279.961C63.5201 271.597 49.3083 260.446 37.4127 247.044C36.5906 246.125 35.7838 245.189 34.9874 244.249C21.8807 228.709 12.104 210.644 6.2627 191.172C0.421436 171.7 -1.35997 151.236 1.02881 131.048C3.41759 110.86 9.9257 91.3768 20.15 73.8059C30.3744 56.235 44.0973 40.9503 60.4687 28.8984C61.3114 28.2767 62.1593 27.6601 63.0174 27.0589C63.187 26.9407 63.3565 26.8225 63.5261 26.7043C78.6039 16.1428 95.5272 8.5003 113.42 4.17239C114.437 3.92061 115.455 3.68425 116.483 3.4633C135.863 -0.776045 155.892 -1.1271 175.41 2.43047C176.432 2.6206 177.455 2.81586 178.472 3.02653C196.205 6.66376 213.118 13.5316 228.366 23.2873C228.705 23.5031 229.044 23.7189 229.384 23.945C230.067 24.3869 230.75 24.8391 231.424 25.2964C251.623 38.8763 268.171 57.2181 279.607 78.7041C291.043 100.19 297.016 124.16 297 148.5Z" fill="#F2F2F2"/>
</svg>
